# xmcd CD database file
#
# Track frame offsets:
#	150
#	22134
#	49132
#	81106
#	107026
#	132807
#	160137
#	195698
#	221085
#	241796
#	255282
#
# Disc length: 3879 seconds
#
# Revision: 1
# Processed by: cddbd v1.5.2PL0 Copyright (c) Steve Scherf et al.
# Submitted via: CDex 1.70beta2
#
DISCID=8f0f250b
DTITLE=Bruce Hornsby, Christian McBride, Jack Dejohnette - Camp Meeting
DYEAR=2007
DGENRE=Jazz
TTITLE0=Questions and Answers
TTITLE1=Charlie, Woody and You
TTITLE2=Solar
TTITLE3=Death and the Flower
TTITLE4=Camp Meeting
TTITLE5=Giant Steps
TTITLE6=Celia
TTITLE7=We'll Be Together Again
TTITLE8=Stacked Mary Possum
TTITLE9=Straight, No Chaser
TTITLE10=Un Poco Loco/Chant Song
EXTD=YEAR: 2007
EXTT0=
EXTT1=
EXTT2=
EXTT3=
EXTT4=
EXTT5=
EXTT6=
EXTT7=
EXTT8=
EXTT9=
EXTT10=
PLAYORDER=
